<mxfile host="app.diagrams.net" modified="2023-08-28T14:44:15.278Z" agent="Mozilla/5.0 (Macintosh; Intel Mac OS X 10_15_7) AppleWebKit/605.1.15 (KHTML, like Gecko) Version/15.6.1 Safari/605.1.15" etag="UzttAZCU_vGMYDGoRhcI" version="21.6.9" type="github" pages="2">
  <diagram name="Exercice01" id="DmcFzqCauhdUAu7yz9KC">
    <mxGraphModel dx="3072" dy="928" grid="1" gridSize="11" guides="1" tooltips="1" connect="1" arrows="1" fold="1" page="1" pageScale="1" pageWidth="1169" pageHeight="827" math="0" shadow="0">
      <root>
        <mxCell id="0" />
        <mxCell id="1" parent="0" />
        <mxCell id="F_JwK1U8owphO4rIT6gw-5" style="edgeStyle=orthogonalEdgeStyle;rounded=0;orthogonalLoop=1;jettySize=auto;html=1;exitX=0;exitY=0.5;exitDx=0;exitDy=0;" edge="1" parent="1" source="F_JwK1U8owphO4rIT6gw-1" target="F_JwK1U8owphO4rIT6gw-3">
          <mxGeometry relative="1" as="geometry">
            <Array as="points">
              <mxPoint x="473" y="55" />
              <mxPoint x="11" y="55" />
            </Array>
          </mxGeometry>
        </mxCell>
        <mxCell id="F_JwK1U8owphO4rIT6gw-11" style="edgeStyle=orthogonalEdgeStyle;rounded=0;orthogonalLoop=1;jettySize=auto;html=1;entryX=0.5;entryY=0;entryDx=0;entryDy=0;" edge="1" parent="1" source="F_JwK1U8owphO4rIT6gw-1" target="F_JwK1U8owphO4rIT6gw-13">
          <mxGeometry relative="1" as="geometry">
            <mxPoint x="814" y="132" as="targetPoint" />
            <Array as="points">
              <mxPoint x="885" y="54" />
            </Array>
          </mxGeometry>
        </mxCell>
        <mxCell id="F_JwK1U8owphO4rIT6gw-12" style="edgeStyle=orthogonalEdgeStyle;rounded=0;orthogonalLoop=1;jettySize=auto;html=1;entryX=0.441;entryY=-0.056;entryDx=0;entryDy=0;entryPerimeter=0;" edge="1" parent="1" source="F_JwK1U8owphO4rIT6gw-1" target="F_JwK1U8owphO4rIT6gw-15">
          <mxGeometry relative="1" as="geometry">
            <mxPoint x="1199" y="99" as="targetPoint" />
            <Array as="points">
              <mxPoint x="1199" y="54" />
              <mxPoint x="1199" y="106" />
            </Array>
          </mxGeometry>
        </mxCell>
        <mxCell id="F_JwK1U8owphO4rIT6gw-50" style="edgeStyle=orthogonalEdgeStyle;rounded=0;orthogonalLoop=1;jettySize=auto;html=1;" edge="1" parent="1" source="F_JwK1U8owphO4rIT6gw-1">
          <mxGeometry relative="1" as="geometry">
            <mxPoint x="341" y="110" as="targetPoint" />
          </mxGeometry>
        </mxCell>
        <mxCell id="F_JwK1U8owphO4rIT6gw-1" value="Accueil&amp;nbsp;" style="rounded=1;whiteSpace=wrap;html=1;fillColor=#dae8fc;strokeColor=#6c8ebf;gradientColor=#7ea6e0;" vertex="1" parent="1">
          <mxGeometry x="473" y="20" width="209" height="68" as="geometry" />
        </mxCell>
        <mxCell id="F_JwK1U8owphO4rIT6gw-18" style="edgeStyle=orthogonalEdgeStyle;rounded=0;orthogonalLoop=1;jettySize=auto;html=1;exitX=0.5;exitY=1;exitDx=0;exitDy=0;entryX=0.5;entryY=0;entryDx=0;entryDy=0;" edge="1" parent="1" source="F_JwK1U8owphO4rIT6gw-3" target="F_JwK1U8owphO4rIT6gw-16">
          <mxGeometry relative="1" as="geometry" />
        </mxCell>
        <mxCell id="F_JwK1U8owphO4rIT6gw-3" value="Boissons" style="rounded=1;whiteSpace=wrap;html=1;fillColor=#d5e8d4;strokeColor=#82b366;gradientColor=#97d077;" vertex="1" parent="1">
          <mxGeometry x="-88" y="121" width="165" height="71" as="geometry" />
        </mxCell>
        <mxCell id="F_JwK1U8owphO4rIT6gw-64" style="edgeStyle=orthogonalEdgeStyle;rounded=0;orthogonalLoop=1;jettySize=auto;html=1;entryX=0.5;entryY=0;entryDx=0;entryDy=0;" edge="1" parent="1" source="F_JwK1U8owphO4rIT6gw-4" target="F_JwK1U8owphO4rIT6gw-52">
          <mxGeometry relative="1" as="geometry" />
        </mxCell>
        <mxCell id="F_JwK1U8owphO4rIT6gw-4" value="Collations" style="rounded=1;whiteSpace=wrap;html=1;fillColor=#fff2cc;strokeColor=#d6b656;gradientColor=#ffd966;" vertex="1" parent="1">
          <mxGeometry x="264" y="110" width="165" height="71" as="geometry" />
        </mxCell>
        <mxCell id="F_JwK1U8owphO4rIT6gw-76" style="edgeStyle=orthogonalEdgeStyle;rounded=0;orthogonalLoop=1;jettySize=auto;html=1;entryX=0.469;entryY=0.267;entryDx=0;entryDy=0;entryPerimeter=0;" edge="1" parent="1" source="F_JwK1U8owphO4rIT6gw-13" target="F_JwK1U8owphO4rIT6gw-70">
          <mxGeometry relative="1" as="geometry" />
        </mxCell>
        <mxCell id="F_JwK1U8owphO4rIT6gw-13" value="A propos de nous" style="rounded=1;whiteSpace=wrap;html=1;fillColor=#f8cecc;strokeColor=#b85450;gradientColor=#ea6b66;" vertex="1" parent="1">
          <mxGeometry x="814" y="110" width="143" height="71" as="geometry" />
        </mxCell>
        <mxCell id="F_JwK1U8owphO4rIT6gw-75" style="edgeStyle=orthogonalEdgeStyle;rounded=0;orthogonalLoop=1;jettySize=auto;html=1;" edge="1" parent="1" source="F_JwK1U8owphO4rIT6gw-15" target="F_JwK1U8owphO4rIT6gw-74">
          <mxGeometry relative="1" as="geometry" />
        </mxCell>
        <mxCell id="F_JwK1U8owphO4rIT6gw-15" value="Contact" style="rounded=1;whiteSpace=wrap;html=1;fillColor=#e6d0de;strokeColor=#996185;gradientColor=#d5739d;" vertex="1" parent="1">
          <mxGeometry x="1133" y="110" width="143" height="71" as="geometry" />
        </mxCell>
        <mxCell id="F_JwK1U8owphO4rIT6gw-19" style="edgeStyle=orthogonalEdgeStyle;rounded=0;orthogonalLoop=1;jettySize=auto;html=1;" edge="1" parent="1" source="F_JwK1U8owphO4rIT6gw-16" target="F_JwK1U8owphO4rIT6gw-17">
          <mxGeometry relative="1" as="geometry" />
        </mxCell>
        <mxCell id="F_JwK1U8owphO4rIT6gw-29" style="edgeStyle=orthogonalEdgeStyle;rounded=0;orthogonalLoop=1;jettySize=auto;html=1;entryX=0;entryY=0.5;entryDx=0;entryDy=0;" edge="1" parent="1" source="F_JwK1U8owphO4rIT6gw-16" target="F_JwK1U8owphO4rIT6gw-23">
          <mxGeometry relative="1" as="geometry">
            <mxPoint x="110" y="288.5" as="targetPoint" />
          </mxGeometry>
        </mxCell>
        <mxCell id="F_JwK1U8owphO4rIT6gw-31" style="edgeStyle=orthogonalEdgeStyle;rounded=0;orthogonalLoop=1;jettySize=auto;html=1;entryX=0;entryY=0.5;entryDx=0;entryDy=0;" edge="1" parent="1" source="F_JwK1U8owphO4rIT6gw-16" target="F_JwK1U8owphO4rIT6gw-25">
          <mxGeometry relative="1" as="geometry">
            <Array as="points">
              <mxPoint x="99" y="289" />
              <mxPoint x="99" y="289" />
            </Array>
          </mxGeometry>
        </mxCell>
        <mxCell id="F_JwK1U8owphO4rIT6gw-32" style="edgeStyle=orthogonalEdgeStyle;rounded=0;orthogonalLoop=1;jettySize=auto;html=1;entryX=0;entryY=0.5;entryDx=0;entryDy=0;" edge="1" parent="1" source="F_JwK1U8owphO4rIT6gw-16" target="F_JwK1U8owphO4rIT6gw-26">
          <mxGeometry relative="1" as="geometry" />
        </mxCell>
        <mxCell id="F_JwK1U8owphO4rIT6gw-16" value="Café" style="rounded=1;whiteSpace=wrap;html=1;fillColor=#d5e8d4;strokeColor=#82b366;" vertex="1" parent="1">
          <mxGeometry x="-66" y="253" width="121" height="71" as="geometry" />
        </mxCell>
        <mxCell id="F_JwK1U8owphO4rIT6gw-22" style="edgeStyle=orthogonalEdgeStyle;rounded=0;orthogonalLoop=1;jettySize=auto;html=1;" edge="1" parent="1" source="F_JwK1U8owphO4rIT6gw-17" target="F_JwK1U8owphO4rIT6gw-21">
          <mxGeometry relative="1" as="geometry" />
        </mxCell>
        <mxCell id="F_JwK1U8owphO4rIT6gw-37" style="edgeStyle=orthogonalEdgeStyle;rounded=0;orthogonalLoop=1;jettySize=auto;html=1;entryX=0;entryY=0.5;entryDx=0;entryDy=0;" edge="1" parent="1" source="F_JwK1U8owphO4rIT6gw-17" target="F_JwK1U8owphO4rIT6gw-34">
          <mxGeometry relative="1" as="geometry" />
        </mxCell>
        <mxCell id="F_JwK1U8owphO4rIT6gw-40" style="edgeStyle=orthogonalEdgeStyle;rounded=0;orthogonalLoop=1;jettySize=auto;html=1;entryX=0;entryY=0.5;entryDx=0;entryDy=0;" edge="1" parent="1" source="F_JwK1U8owphO4rIT6gw-17" target="F_JwK1U8owphO4rIT6gw-33">
          <mxGeometry relative="1" as="geometry" />
        </mxCell>
        <mxCell id="F_JwK1U8owphO4rIT6gw-41" style="edgeStyle=orthogonalEdgeStyle;rounded=0;orthogonalLoop=1;jettySize=auto;html=1;entryX=0;entryY=0.5;entryDx=0;entryDy=0;" edge="1" parent="1" source="F_JwK1U8owphO4rIT6gw-17" target="F_JwK1U8owphO4rIT6gw-36">
          <mxGeometry relative="1" as="geometry" />
        </mxCell>
        <mxCell id="F_JwK1U8owphO4rIT6gw-17" value="Thé" style="rounded=1;whiteSpace=wrap;html=1;fillColor=#d5e8d4;strokeColor=#82b366;" vertex="1" parent="1">
          <mxGeometry x="-66" y="484" width="121" height="77" as="geometry" />
        </mxCell>
        <mxCell id="F_JwK1U8owphO4rIT6gw-45" style="edgeStyle=orthogonalEdgeStyle;rounded=0;orthogonalLoop=1;jettySize=auto;html=1;entryX=0;entryY=0.5;entryDx=0;entryDy=0;" edge="1" parent="1" source="F_JwK1U8owphO4rIT6gw-21" target="F_JwK1U8owphO4rIT6gw-43">
          <mxGeometry relative="1" as="geometry" />
        </mxCell>
        <mxCell id="F_JwK1U8owphO4rIT6gw-46" style="edgeStyle=orthogonalEdgeStyle;rounded=0;orthogonalLoop=1;jettySize=auto;html=1;entryX=0;entryY=0.5;entryDx=0;entryDy=0;" edge="1" parent="1" source="F_JwK1U8owphO4rIT6gw-21" target="F_JwK1U8owphO4rIT6gw-42">
          <mxGeometry relative="1" as="geometry" />
        </mxCell>
        <mxCell id="F_JwK1U8owphO4rIT6gw-48" style="edgeStyle=orthogonalEdgeStyle;rounded=0;orthogonalLoop=1;jettySize=auto;html=1;entryX=0;entryY=0.5;entryDx=0;entryDy=0;" edge="1" parent="1" source="F_JwK1U8owphO4rIT6gw-21" target="F_JwK1U8owphO4rIT6gw-44">
          <mxGeometry relative="1" as="geometry" />
        </mxCell>
        <mxCell id="F_JwK1U8owphO4rIT6gw-21" value="Boissons froides" style="rounded=1;whiteSpace=wrap;html=1;fillColor=#d5e8d4;strokeColor=#82b366;" vertex="1" parent="1">
          <mxGeometry x="-66" y="726" width="121" height="71" as="geometry" />
        </mxCell>
        <mxCell id="F_JwK1U8owphO4rIT6gw-23" value="Expresso" style="rounded=0;whiteSpace=wrap;html=1;fillColor=#cdeb8b;strokeColor=#36393d;" vertex="1" parent="1">
          <mxGeometry x="132" y="204" width="88" height="38" as="geometry" />
        </mxCell>
        <mxCell id="F_JwK1U8owphO4rIT6gw-25" value="Café au lait&amp;nbsp;" style="rounded=0;whiteSpace=wrap;html=1;fillColor=#cdeb8b;strokeColor=#36393d;" vertex="1" parent="1">
          <mxGeometry x="132" y="269.5" width="88" height="38" as="geometry" />
        </mxCell>
        <mxCell id="F_JwK1U8owphO4rIT6gw-26" value="Cappuccino" style="rounded=0;whiteSpace=wrap;html=1;fillColor=#cdeb8b;strokeColor=#36393d;" vertex="1" parent="1">
          <mxGeometry x="132" y="341" width="88" height="38" as="geometry" />
        </mxCell>
        <mxCell id="F_JwK1U8owphO4rIT6gw-33" value="Thé noir" style="rounded=0;whiteSpace=wrap;html=1;fillColor=#b0e3e6;strokeColor=#0e8088;" vertex="1" parent="1">
          <mxGeometry x="132" y="440" width="88" height="33" as="geometry" />
        </mxCell>
        <mxCell id="F_JwK1U8owphO4rIT6gw-34" value="Thé vert" style="rounded=0;whiteSpace=wrap;html=1;fillColor=#b0e3e6;strokeColor=#0e8088;" vertex="1" parent="1">
          <mxGeometry x="132" y="506" width="88" height="33" as="geometry" />
        </mxCell>
        <mxCell id="F_JwK1U8owphO4rIT6gw-36" value="Infusion&amp;nbsp;" style="rounded=0;whiteSpace=wrap;html=1;fillColor=#b0e3e6;strokeColor=#0e8088;" vertex="1" parent="1">
          <mxGeometry x="132" y="572" width="88" height="33" as="geometry" />
        </mxCell>
        <mxCell id="F_JwK1U8owphO4rIT6gw-42" value="Café glacé" style="rounded=0;whiteSpace=wrap;html=1;fillColor=#bac8d3;strokeColor=#23445d;" vertex="1" parent="1">
          <mxGeometry x="132" y="660" width="88" height="38" as="geometry" />
        </mxCell>
        <mxCell id="F_JwK1U8owphO4rIT6gw-43" value="Thé glacé" style="rounded=0;whiteSpace=wrap;html=1;fillColor=#bac8d3;strokeColor=#23445d;" vertex="1" parent="1">
          <mxGeometry x="132" y="742.5" width="88" height="38" as="geometry" />
        </mxCell>
        <mxCell id="F_JwK1U8owphO4rIT6gw-44" value="Limonade" style="rounded=0;whiteSpace=wrap;html=1;fillColor=#bac8d3;strokeColor=#23445d;" vertex="1" parent="1">
          <mxGeometry x="132" y="825" width="88" height="38" as="geometry" />
        </mxCell>
        <mxCell id="F_JwK1U8owphO4rIT6gw-60" style="edgeStyle=orthogonalEdgeStyle;rounded=0;orthogonalLoop=1;jettySize=auto;html=1;entryX=0;entryY=0.5;entryDx=0;entryDy=0;" edge="1" parent="1" source="F_JwK1U8owphO4rIT6gw-52" target="F_JwK1U8owphO4rIT6gw-56">
          <mxGeometry relative="1" as="geometry" />
        </mxCell>
        <mxCell id="F_JwK1U8owphO4rIT6gw-61" style="edgeStyle=orthogonalEdgeStyle;rounded=0;orthogonalLoop=1;jettySize=auto;html=1;entryX=0;entryY=0.5;entryDx=0;entryDy=0;" edge="1" parent="1" source="F_JwK1U8owphO4rIT6gw-52" target="F_JwK1U8owphO4rIT6gw-57">
          <mxGeometry relative="1" as="geometry" />
        </mxCell>
        <mxCell id="F_JwK1U8owphO4rIT6gw-62" style="edgeStyle=orthogonalEdgeStyle;rounded=0;orthogonalLoop=1;jettySize=auto;html=1;entryX=0;entryY=0.5;entryDx=0;entryDy=0;" edge="1" parent="1" source="F_JwK1U8owphO4rIT6gw-52" target="F_JwK1U8owphO4rIT6gw-58">
          <mxGeometry relative="1" as="geometry" />
        </mxCell>
        <mxCell id="F_JwK1U8owphO4rIT6gw-65" style="edgeStyle=orthogonalEdgeStyle;rounded=0;orthogonalLoop=1;jettySize=auto;html=1;" edge="1" parent="1" source="F_JwK1U8owphO4rIT6gw-52" target="F_JwK1U8owphO4rIT6gw-53">
          <mxGeometry relative="1" as="geometry" />
        </mxCell>
        <mxCell id="F_JwK1U8owphO4rIT6gw-52" value="Pâtisseries" style="rounded=1;whiteSpace=wrap;html=1;fillColor=#fad7ac;strokeColor=#b46504;" vertex="1" parent="1">
          <mxGeometry x="286" y="253" width="121" height="71" as="geometry" />
        </mxCell>
        <mxCell id="F_JwK1U8owphO4rIT6gw-68" style="edgeStyle=orthogonalEdgeStyle;rounded=0;orthogonalLoop=1;jettySize=auto;html=1;entryX=0;entryY=0.5;entryDx=0;entryDy=0;" edge="1" parent="1" source="F_JwK1U8owphO4rIT6gw-53" target="F_JwK1U8owphO4rIT6gw-66">
          <mxGeometry relative="1" as="geometry" />
        </mxCell>
        <mxCell id="F_JwK1U8owphO4rIT6gw-69" style="edgeStyle=orthogonalEdgeStyle;rounded=0;orthogonalLoop=1;jettySize=auto;html=1;entryX=0;entryY=0.5;entryDx=0;entryDy=0;" edge="1" parent="1" source="F_JwK1U8owphO4rIT6gw-53" target="F_JwK1U8owphO4rIT6gw-67">
          <mxGeometry relative="1" as="geometry" />
        </mxCell>
        <mxCell id="F_JwK1U8owphO4rIT6gw-53" value="Snacks" style="rounded=1;whiteSpace=wrap;html=1;fillColor=#fad7ac;strokeColor=#b46504;" vertex="1" parent="1">
          <mxGeometry x="286" y="484" width="121" height="71" as="geometry" />
        </mxCell>
        <mxCell id="F_JwK1U8owphO4rIT6gw-56" value="Muffins" style="rounded=0;whiteSpace=wrap;html=1;fillColor=#fff2cc;strokeColor=#d6b656;" vertex="1" parent="1">
          <mxGeometry x="506" y="269.5" width="88" height="38" as="geometry" />
        </mxCell>
        <mxCell id="F_JwK1U8owphO4rIT6gw-57" value="Croissants" style="rounded=0;whiteSpace=wrap;html=1;fillColor=#fff2cc;strokeColor=#d6b656;" vertex="1" parent="1">
          <mxGeometry x="506" y="204" width="88" height="38" as="geometry" />
        </mxCell>
        <mxCell id="F_JwK1U8owphO4rIT6gw-58" value="Biscuits" style="rounded=0;whiteSpace=wrap;html=1;fillColor=#fff2cc;strokeColor=#d6b656;" vertex="1" parent="1">
          <mxGeometry x="506" y="330" width="88" height="38" as="geometry" />
        </mxCell>
        <mxCell id="F_JwK1U8owphO4rIT6gw-66" value="Chips" style="rounded=0;whiteSpace=wrap;html=1;fillColor=#f0a30a;strokeColor=#BD7000;fontColor=#000000;" vertex="1" parent="1">
          <mxGeometry x="497" y="462" width="88" height="38" as="geometry" />
        </mxCell>
        <mxCell id="F_JwK1U8owphO4rIT6gw-67" value="Barres énergétiques" style="rounded=0;whiteSpace=wrap;html=1;fillColor=#f0a30a;strokeColor=#BD7000;fontColor=#000000;" vertex="1" parent="1">
          <mxGeometry x="497" y="539" width="88" height="38" as="geometry" />
        </mxCell>
        <mxCell id="F_JwK1U8owphO4rIT6gw-78" style="edgeStyle=orthogonalEdgeStyle;rounded=0;orthogonalLoop=1;jettySize=auto;html=1;" edge="1" parent="1" source="F_JwK1U8owphO4rIT6gw-70" target="F_JwK1U8owphO4rIT6gw-72">
          <mxGeometry relative="1" as="geometry" />
        </mxCell>
        <mxCell id="F_JwK1U8owphO4rIT6gw-70" value="Notre Histoire" style="rounded=1;whiteSpace=wrap;html=1;fillColor=#f8cecc;strokeColor=#b85450;" vertex="1" parent="1">
          <mxGeometry x="803" y="248" width="176" height="60" as="geometry" />
        </mxCell>
        <mxCell id="F_JwK1U8owphO4rIT6gw-79" style="edgeStyle=orthogonalEdgeStyle;rounded=0;orthogonalLoop=1;jettySize=auto;html=1;" edge="1" parent="1" source="F_JwK1U8owphO4rIT6gw-72" target="F_JwK1U8owphO4rIT6gw-73">
          <mxGeometry relative="1" as="geometry" />
        </mxCell>
        <mxCell id="F_JwK1U8owphO4rIT6gw-72" value="Notre Équipe" style="rounded=1;whiteSpace=wrap;html=1;fillColor=#f8cecc;strokeColor=#b85450;" vertex="1" parent="1">
          <mxGeometry x="803" y="354" width="176" height="60" as="geometry" />
        </mxCell>
        <mxCell id="F_JwK1U8owphO4rIT6gw-73" value="Nos Valeurs" style="rounded=1;whiteSpace=wrap;html=1;fillColor=#f8cecc;strokeColor=#b85450;" vertex="1" parent="1">
          <mxGeometry x="803" y="462" width="176" height="60" as="geometry" />
        </mxCell>
        <mxCell id="F_JwK1U8owphO4rIT6gw-74" value="Formulaire de contact" style="rounded=1;whiteSpace=wrap;html=1;fillColor=#e1d5e7;strokeColor=#9673a6;" vertex="1" parent="1">
          <mxGeometry x="1116.5" y="242" width="176" height="60" as="geometry" />
        </mxCell>
      </root>
    </mxGraphModel>
  </diagram>
  <diagram id="L5DHyVzV3pRkx_hu4DRs" name="Page D&#39;accueil">
    <mxGraphModel dx="3072" dy="1781" grid="1" gridSize="10" guides="1" tooltips="1" connect="1" arrows="1" fold="1" page="1" pageScale="1" pageWidth="1169" pageHeight="827" math="0" shadow="0">
      <root>
        <mxCell id="0" />
        <mxCell id="1" parent="0" />
        <mxCell id="2KpdNYSs9xen9eOHEGVI-5" style="edgeStyle=orthogonalEdgeStyle;rounded=0;orthogonalLoop=1;jettySize=auto;html=1;entryX=1;entryY=0.5;entryDx=0;entryDy=0;" edge="1" parent="1" source="09Z5_-Nf4q6-onUSBLvc-2" target="09Z5_-Nf4q6-onUSBLvc-3">
          <mxGeometry relative="1" as="geometry" />
        </mxCell>
        <mxCell id="2KpdNYSs9xen9eOHEGVI-6" style="edgeStyle=orthogonalEdgeStyle;rounded=0;orthogonalLoop=1;jettySize=auto;html=1;entryX=0;entryY=0.5;entryDx=0;entryDy=0;" edge="1" parent="1" source="09Z5_-Nf4q6-onUSBLvc-2" target="09Z5_-Nf4q6-onUSBLvc-7">
          <mxGeometry relative="1" as="geometry" />
        </mxCell>
        <mxCell id="2KpdNYSs9xen9eOHEGVI-8" style="edgeStyle=orthogonalEdgeStyle;rounded=0;orthogonalLoop=1;jettySize=auto;html=1;entryX=0.5;entryY=0;entryDx=0;entryDy=0;" edge="1" parent="1" source="09Z5_-Nf4q6-onUSBLvc-2" target="09Z5_-Nf4q6-onUSBLvc-6">
          <mxGeometry relative="1" as="geometry" />
        </mxCell>
        <mxCell id="2KpdNYSs9xen9eOHEGVI-9" style="edgeStyle=orthogonalEdgeStyle;rounded=0;orthogonalLoop=1;jettySize=auto;html=1;entryX=0.5;entryY=0;entryDx=0;entryDy=0;" edge="1" parent="1" source="09Z5_-Nf4q6-onUSBLvc-2" target="09Z5_-Nf4q6-onUSBLvc-4">
          <mxGeometry relative="1" as="geometry" />
        </mxCell>
        <mxCell id="2KpdNYSs9xen9eOHEGVI-24" style="edgeStyle=orthogonalEdgeStyle;rounded=0;orthogonalLoop=1;jettySize=auto;html=1;" edge="1" parent="1" source="09Z5_-Nf4q6-onUSBLvc-2" target="2KpdNYSs9xen9eOHEGVI-23">
          <mxGeometry relative="1" as="geometry" />
        </mxCell>
        <mxCell id="09Z5_-Nf4q6-onUSBLvc-2" value="&lt;font size=&quot;3&quot;&gt;MAC Montréal&amp;nbsp;&lt;/font&gt;" style="shape=process;whiteSpace=wrap;html=1;backgroundOutline=1;fillColor=#b0e3e6;strokeColor=#0e8088;sketch=1;curveFitting=1;jiggle=2;" vertex="1" parent="1">
          <mxGeometry x="440" y="10" width="300" height="70" as="geometry" />
        </mxCell>
        <mxCell id="2KpdNYSs9xen9eOHEGVI-1" style="edgeStyle=orthogonalEdgeStyle;rounded=0;orthogonalLoop=1;jettySize=auto;html=1;" edge="1" parent="1" source="09Z5_-Nf4q6-onUSBLvc-3" target="09Z5_-Nf4q6-onUSBLvc-9">
          <mxGeometry relative="1" as="geometry" />
        </mxCell>
        <mxCell id="09Z5_-Nf4q6-onUSBLvc-3" value="&lt;font size=&quot;3&quot;&gt;Quoi &amp;nbsp;faire au Musée&lt;/font&gt;" style="rounded=1;whiteSpace=wrap;html=1;fillColor=#f8cecc;gradientColor=#ea6b66;strokeColor=#b85450;sketch=1;curveFitting=1;jiggle=2;" vertex="1" parent="1">
          <mxGeometry x="-130" y="10" width="150" height="70" as="geometry" />
        </mxCell>
        <mxCell id="2KpdNYSs9xen9eOHEGVI-18" style="edgeStyle=orthogonalEdgeStyle;rounded=0;orthogonalLoop=1;jettySize=auto;html=1;" edge="1" parent="1" source="09Z5_-Nf4q6-onUSBLvc-4" target="2KpdNYSs9xen9eOHEGVI-11">
          <mxGeometry relative="1" as="geometry" />
        </mxCell>
        <mxCell id="09Z5_-Nf4q6-onUSBLvc-4" value="&lt;font size=&quot;3&quot;&gt;Collections&lt;/font&gt;" style="rounded=1;whiteSpace=wrap;html=1;fillColor=#e6d0de;strokeColor=#996185;gradientColor=#d5739d;sketch=1;curveFitting=1;jiggle=2;" vertex="1" parent="1">
          <mxGeometry x="180" y="120" width="150" height="70" as="geometry" />
        </mxCell>
        <mxCell id="2KpdNYSs9xen9eOHEGVI-41" style="edgeStyle=orthogonalEdgeStyle;rounded=0;orthogonalLoop=1;jettySize=auto;html=1;" edge="1" parent="1" source="09Z5_-Nf4q6-onUSBLvc-6" target="2KpdNYSs9xen9eOHEGVI-37">
          <mxGeometry relative="1" as="geometry" />
        </mxCell>
        <mxCell id="09Z5_-Nf4q6-onUSBLvc-6" value="&lt;font size=&quot;3&quot;&gt;Renseignement&lt;/font&gt;" style="rounded=1;whiteSpace=wrap;html=1;fillColor=#fff2cc;gradientColor=#ffd966;strokeColor=#d6b656;sketch=1;curveFitting=1;jiggle=2;" vertex="1" parent="1">
          <mxGeometry x="790" y="120" width="150" height="70" as="geometry" />
        </mxCell>
        <mxCell id="09Z5_-Nf4q6-onUSBLvc-7" value="&lt;font size=&quot;3&quot;&gt;Fondation&lt;/font&gt;" style="rounded=1;whiteSpace=wrap;html=1;fillColor=#dae8fc;gradientColor=#7ea6e0;strokeColor=#6c8ebf;sketch=1;curveFitting=1;jiggle=2;" vertex="1" parent="1">
          <mxGeometry x="1090" y="10" width="150" height="70" as="geometry" />
        </mxCell>
        <mxCell id="2KpdNYSs9xen9eOHEGVI-2" style="edgeStyle=orthogonalEdgeStyle;rounded=0;orthogonalLoop=1;jettySize=auto;html=1;entryX=0.5;entryY=0;entryDx=0;entryDy=0;" edge="1" parent="1" source="09Z5_-Nf4q6-onUSBLvc-9" target="09Z5_-Nf4q6-onUSBLvc-11">
          <mxGeometry relative="1" as="geometry" />
        </mxCell>
        <mxCell id="09Z5_-Nf4q6-onUSBLvc-9" value="Rentrée Culturelle" style="shape=parallelogram;perimeter=parallelogramPerimeter;whiteSpace=wrap;html=1;fixedSize=1;fillColor=#f8cecc;strokeColor=#b85450;shadow=1;sketch=1;curveFitting=1;jiggle=2;" vertex="1" parent="1">
          <mxGeometry x="-115" y="130" width="120" height="50" as="geometry" />
        </mxCell>
        <mxCell id="2KpdNYSs9xen9eOHEGVI-3" style="edgeStyle=orthogonalEdgeStyle;rounded=0;orthogonalLoop=1;jettySize=auto;html=1;entryX=0.5;entryY=0;entryDx=0;entryDy=0;" edge="1" parent="1" source="09Z5_-Nf4q6-onUSBLvc-11" target="09Z5_-Nf4q6-onUSBLvc-13">
          <mxGeometry relative="1" as="geometry" />
        </mxCell>
        <mxCell id="09Z5_-Nf4q6-onUSBLvc-11" value="Le passeport de &amp;nbsp;saison" style="shape=parallelogram;perimeter=parallelogramPerimeter;whiteSpace=wrap;html=1;fixedSize=1;fillColor=#f8cecc;strokeColor=#b85450;sketch=1;curveFitting=1;jiggle=2;" vertex="1" parent="1">
          <mxGeometry x="-115" y="220" width="120" height="50" as="geometry" />
        </mxCell>
        <mxCell id="2KpdNYSs9xen9eOHEGVI-4" style="edgeStyle=orthogonalEdgeStyle;rounded=0;orthogonalLoop=1;jettySize=auto;html=1;" edge="1" parent="1" source="09Z5_-Nf4q6-onUSBLvc-13" target="09Z5_-Nf4q6-onUSBLvc-14">
          <mxGeometry relative="1" as="geometry" />
        </mxCell>
        <mxCell id="2KpdNYSs9xen9eOHEGVI-56" style="edgeStyle=orthogonalEdgeStyle;rounded=0;orthogonalLoop=1;jettySize=auto;html=1;" edge="1" parent="1" source="09Z5_-Nf4q6-onUSBLvc-13" target="2KpdNYSs9xen9eOHEGVI-57">
          <mxGeometry relative="1" as="geometry">
            <mxPoint x="30" y="335" as="targetPoint" />
          </mxGeometry>
        </mxCell>
        <mxCell id="09Z5_-Nf4q6-onUSBLvc-13" value="Expositions" style="shape=parallelogram;perimeter=parallelogramPerimeter;whiteSpace=wrap;html=1;fixedSize=1;fillColor=#f8cecc;strokeColor=#b85450;sketch=1;curveFitting=1;jiggle=2;" vertex="1" parent="1">
          <mxGeometry x="-115" y="310" width="120" height="50" as="geometry" />
        </mxCell>
        <mxCell id="09Z5_-Nf4q6-onUSBLvc-14" value="Activités" style="shape=parallelogram;perimeter=parallelogramPerimeter;whiteSpace=wrap;html=1;fixedSize=1;fillColor=#f8cecc;strokeColor=#b85450;sketch=1;curveFitting=1;jiggle=2;" vertex="1" parent="1">
          <mxGeometry x="-115" y="400" width="120" height="50" as="geometry" />
        </mxCell>
        <mxCell id="2KpdNYSs9xen9eOHEGVI-19" style="edgeStyle=orthogonalEdgeStyle;rounded=0;orthogonalLoop=1;jettySize=auto;html=1;" edge="1" parent="1" source="2KpdNYSs9xen9eOHEGVI-11" target="2KpdNYSs9xen9eOHEGVI-12">
          <mxGeometry relative="1" as="geometry" />
        </mxCell>
        <mxCell id="2KpdNYSs9xen9eOHEGVI-11" value="À propos" style="shape=parallelogram;perimeter=parallelogramPerimeter;whiteSpace=wrap;html=1;fixedSize=1;fillColor=#e1d5e7;strokeColor=#9673a6;sketch=1;curveFitting=1;jiggle=2;" vertex="1" parent="1">
          <mxGeometry x="195" y="230" width="120" height="50" as="geometry" />
        </mxCell>
        <mxCell id="2KpdNYSs9xen9eOHEGVI-20" style="edgeStyle=orthogonalEdgeStyle;rounded=0;orthogonalLoop=1;jettySize=auto;html=1;entryX=0.5;entryY=0;entryDx=0;entryDy=0;" edge="1" parent="1" source="2KpdNYSs9xen9eOHEGVI-12" target="2KpdNYSs9xen9eOHEGVI-13">
          <mxGeometry relative="1" as="geometry" />
        </mxCell>
        <mxCell id="2KpdNYSs9xen9eOHEGVI-12" value="MAC répertoire" style="shape=parallelogram;perimeter=parallelogramPerimeter;whiteSpace=wrap;html=1;fixedSize=1;fillColor=#e1d5e7;strokeColor=#9673a6;sketch=1;curveFitting=1;jiggle=2;" vertex="1" parent="1">
          <mxGeometry x="195" y="313.5" width="120" height="50" as="geometry" />
        </mxCell>
        <mxCell id="2KpdNYSs9xen9eOHEGVI-21" style="edgeStyle=orthogonalEdgeStyle;rounded=0;orthogonalLoop=1;jettySize=auto;html=1;" edge="1" parent="1" source="2KpdNYSs9xen9eOHEGVI-13" target="2KpdNYSs9xen9eOHEGVI-14">
          <mxGeometry relative="1" as="geometry" />
        </mxCell>
        <mxCell id="2KpdNYSs9xen9eOHEGVI-13" value="Acquisitions" style="shape=parallelogram;perimeter=parallelogramPerimeter;whiteSpace=wrap;html=1;fixedSize=1;fillColor=#e1d5e7;strokeColor=#9673a6;sketch=1;curveFitting=1;jiggle=2;" vertex="1" parent="1">
          <mxGeometry x="195" y="388.5" width="120" height="50" as="geometry" />
        </mxCell>
        <mxCell id="2KpdNYSs9xen9eOHEGVI-14" value="Oeuvres dans la&amp;nbsp;&lt;br&gt;ville" style="shape=parallelogram;perimeter=parallelogramPerimeter;whiteSpace=wrap;html=1;fixedSize=1;fillColor=#e1d5e7;strokeColor=#9673a6;sketch=1;curveFitting=1;jiggle=2;" vertex="1" parent="1">
          <mxGeometry x="195" y="470" width="120" height="50" as="geometry" />
        </mxCell>
        <mxCell id="2KpdNYSs9xen9eOHEGVI-30" style="edgeStyle=orthogonalEdgeStyle;rounded=0;orthogonalLoop=1;jettySize=auto;html=1;entryX=0.5;entryY=0;entryDx=0;entryDy=0;" edge="1" parent="1" source="2KpdNYSs9xen9eOHEGVI-23" target="2KpdNYSs9xen9eOHEGVI-26">
          <mxGeometry relative="1" as="geometry" />
        </mxCell>
        <mxCell id="2KpdNYSs9xen9eOHEGVI-23" value="&lt;font size=&quot;3&quot;&gt;Éducation&lt;/font&gt;" style="rounded=1;whiteSpace=wrap;html=1;fillColor=#d5e8d4;strokeColor=#82b366;gradientColor=#97d077;sketch=1;curveFitting=1;jiggle=2;" vertex="1" parent="1">
          <mxGeometry x="515" y="180" width="150" height="70" as="geometry" />
        </mxCell>
        <mxCell id="2KpdNYSs9xen9eOHEGVI-31" style="edgeStyle=orthogonalEdgeStyle;rounded=0;orthogonalLoop=1;jettySize=auto;html=1;" edge="1" parent="1" source="2KpdNYSs9xen9eOHEGVI-26" target="2KpdNYSs9xen9eOHEGVI-28">
          <mxGeometry relative="1" as="geometry" />
        </mxCell>
        <mxCell id="2KpdNYSs9xen9eOHEGVI-26" value="Adulte" style="shape=parallelogram;perimeter=parallelogramPerimeter;whiteSpace=wrap;html=1;fixedSize=1;fillColor=#d5e8d4;strokeColor=#82b366;sketch=1;curveFitting=1;jiggle=2;" vertex="1" parent="1">
          <mxGeometry x="530" y="310" width="120" height="50" as="geometry" />
        </mxCell>
        <mxCell id="2KpdNYSs9xen9eOHEGVI-36" style="edgeStyle=orthogonalEdgeStyle;rounded=0;orthogonalLoop=1;jettySize=auto;html=1;entryX=0.5;entryY=0;entryDx=0;entryDy=0;" edge="1" parent="1" source="2KpdNYSs9xen9eOHEGVI-27" target="2KpdNYSs9xen9eOHEGVI-29">
          <mxGeometry relative="1" as="geometry" />
        </mxCell>
        <mxCell id="2KpdNYSs9xen9eOHEGVI-27" value="Communautaire" style="shape=parallelogram;perimeter=parallelogramPerimeter;whiteSpace=wrap;html=1;fixedSize=1;fillColor=#d5e8d4;strokeColor=#82b366;sketch=1;curveFitting=1;jiggle=2;" vertex="1" parent="1">
          <mxGeometry x="525" y="490" width="120" height="50" as="geometry" />
        </mxCell>
        <mxCell id="2KpdNYSs9xen9eOHEGVI-35" style="edgeStyle=orthogonalEdgeStyle;rounded=0;orthogonalLoop=1;jettySize=auto;html=1;" edge="1" parent="1" source="2KpdNYSs9xen9eOHEGVI-28" target="2KpdNYSs9xen9eOHEGVI-27">
          <mxGeometry relative="1" as="geometry">
            <Array as="points">
              <mxPoint x="590" y="480" />
              <mxPoint x="590" y="480" />
            </Array>
          </mxGeometry>
        </mxCell>
        <mxCell id="2KpdNYSs9xen9eOHEGVI-28" value="Scolaire" style="shape=parallelogram;perimeter=parallelogramPerimeter;whiteSpace=wrap;html=1;fixedSize=1;fillColor=#d5e8d4;strokeColor=#82b366;sketch=1;curveFitting=1;jiggle=2;" vertex="1" parent="1">
          <mxGeometry x="530" y="400" width="120" height="50" as="geometry" />
        </mxCell>
        <mxCell id="2KpdNYSs9xen9eOHEGVI-29" value="SéminArts" style="shape=parallelogram;perimeter=parallelogramPerimeter;whiteSpace=wrap;html=1;fixedSize=1;fillColor=#d5e8d4;strokeColor=#82b366;sketch=1;curveFitting=1;jiggle=2;" vertex="1" parent="1">
          <mxGeometry x="525" y="580" width="120" height="50" as="geometry" />
        </mxCell>
        <mxCell id="2KpdNYSs9xen9eOHEGVI-42" style="edgeStyle=orthogonalEdgeStyle;rounded=0;orthogonalLoop=1;jettySize=auto;html=1;entryX=0.5;entryY=0;entryDx=0;entryDy=0;" edge="1" parent="1" source="2KpdNYSs9xen9eOHEGVI-37" target="2KpdNYSs9xen9eOHEGVI-38">
          <mxGeometry relative="1" as="geometry" />
        </mxCell>
        <mxCell id="2KpdNYSs9xen9eOHEGVI-37" value="Horaire et tarifs" style="shape=parallelogram;perimeter=parallelogramPerimeter;whiteSpace=wrap;html=1;fixedSize=1;fillColor=#fff2cc;strokeColor=#d6b656;sketch=1;curveFitting=1;jiggle=2;" vertex="1" parent="1">
          <mxGeometry x="805" y="230" width="120" height="50" as="geometry" />
        </mxCell>
        <mxCell id="2KpdNYSs9xen9eOHEGVI-43" style="edgeStyle=orthogonalEdgeStyle;rounded=0;orthogonalLoop=1;jettySize=auto;html=1;" edge="1" parent="1" source="2KpdNYSs9xen9eOHEGVI-38" target="2KpdNYSs9xen9eOHEGVI-39">
          <mxGeometry relative="1" as="geometry" />
        </mxCell>
        <mxCell id="2KpdNYSs9xen9eOHEGVI-38" value="Se rendre au MAC" style="shape=parallelogram;perimeter=parallelogramPerimeter;whiteSpace=wrap;html=1;fixedSize=1;fillColor=#fff2cc;strokeColor=#d6b656;sketch=1;curveFitting=1;jiggle=2;" vertex="1" parent="1">
          <mxGeometry x="805" y="320" width="120" height="50" as="geometry" />
        </mxCell>
        <mxCell id="2KpdNYSs9xen9eOHEGVI-44" style="edgeStyle=orthogonalEdgeStyle;rounded=0;orthogonalLoop=1;jettySize=auto;html=1;" edge="1" parent="1" source="2KpdNYSs9xen9eOHEGVI-39" target="2KpdNYSs9xen9eOHEGVI-40">
          <mxGeometry relative="1" as="geometry" />
        </mxCell>
        <mxCell id="2KpdNYSs9xen9eOHEGVI-39" value="Accessibilité" style="shape=parallelogram;perimeter=parallelogramPerimeter;whiteSpace=wrap;html=1;fixedSize=1;fillColor=#fff2cc;strokeColor=#d6b656;sketch=1;curveFitting=1;jiggle=2;" vertex="1" parent="1">
          <mxGeometry x="805" y="413.5" width="120" height="50" as="geometry" />
        </mxCell>
        <mxCell id="2KpdNYSs9xen9eOHEGVI-40" value="Le nouveau MAC" style="shape=parallelogram;perimeter=parallelogramPerimeter;whiteSpace=wrap;html=1;fixedSize=1;fillColor=#fff2cc;strokeColor=#d6b656;sketch=1;curveFitting=1;jiggle=2;" vertex="1" parent="1">
          <mxGeometry x="805" y="510" width="120" height="50" as="geometry" />
        </mxCell>
        <mxCell id="2KpdNYSs9xen9eOHEGVI-46" style="edgeStyle=orthogonalEdgeStyle;rounded=0;orthogonalLoop=1;jettySize=auto;html=1;" edge="1" parent="1" source="2KpdNYSs9xen9eOHEGVI-45" target="09Z5_-Nf4q6-onUSBLvc-2">
          <mxGeometry relative="1" as="geometry" />
        </mxCell>
        <mxCell id="2KpdNYSs9xen9eOHEGVI-47" style="edgeStyle=orthogonalEdgeStyle;rounded=0;orthogonalLoop=1;jettySize=auto;html=1;entryX=0.5;entryY=0;entryDx=0;entryDy=0;" edge="1" parent="1" source="2KpdNYSs9xen9eOHEGVI-45" target="09Z5_-Nf4q6-onUSBLvc-7">
          <mxGeometry relative="1" as="geometry" />
        </mxCell>
        <mxCell id="2KpdNYSs9xen9eOHEGVI-48" style="edgeStyle=orthogonalEdgeStyle;rounded=0;orthogonalLoop=1;jettySize=auto;html=1;entryX=0.5;entryY=0;entryDx=0;entryDy=0;" edge="1" parent="1" source="2KpdNYSs9xen9eOHEGVI-45" target="09Z5_-Nf4q6-onUSBLvc-6">
          <mxGeometry relative="1" as="geometry" />
        </mxCell>
        <mxCell id="2KpdNYSs9xen9eOHEGVI-49" style="edgeStyle=orthogonalEdgeStyle;rounded=0;orthogonalLoop=1;jettySize=auto;html=1;entryX=0.5;entryY=0;entryDx=0;entryDy=0;" edge="1" parent="1" source="2KpdNYSs9xen9eOHEGVI-45" target="09Z5_-Nf4q6-onUSBLvc-3">
          <mxGeometry relative="1" as="geometry" />
        </mxCell>
        <mxCell id="2KpdNYSs9xen9eOHEGVI-50" style="edgeStyle=orthogonalEdgeStyle;rounded=0;orthogonalLoop=1;jettySize=auto;html=1;entryX=0.5;entryY=0;entryDx=0;entryDy=0;" edge="1" parent="1" source="2KpdNYSs9xen9eOHEGVI-45" target="09Z5_-Nf4q6-onUSBLvc-4">
          <mxGeometry relative="1" as="geometry" />
        </mxCell>
        <mxCell id="2KpdNYSs9xen9eOHEGVI-45" value="&lt;font size=&quot;3&quot;&gt;Page&amp;nbsp;D&#39;acceuil&amp;nbsp;&lt;/font&gt;" style="ellipse;whiteSpace=wrap;html=1;fillColor=#E643DB;strokeColor=#190718;fillStyle=auto;opacity=80;sketch=1;curveFitting=1;jiggle=2;" vertex="1" parent="1">
          <mxGeometry x="427.5" y="-240" width="325" height="200" as="geometry" />
        </mxCell>
        <mxCell id="2KpdNYSs9xen9eOHEGVI-57" value="" style="rounded=0;whiteSpace=wrap;html=1;fillColor=#ffcccc;strokeColor=#36393d;sketch=1;curveFitting=1;jiggle=2;gradientColor=#E6D0DE;" vertex="1" parent="1">
          <mxGeometry x="40" y="290" width="90" height="51.25" as="geometry" />
        </mxCell>
        <mxCell id="2KpdNYSs9xen9eOHEGVI-58" value="" style="rounded=0;whiteSpace=wrap;html=1;fillColor=#ffcccc;strokeColor=#36393d;sketch=1;curveFitting=1;jiggle=2;gradientColor=#E6D0DE;" vertex="1" parent="1">
          <mxGeometry x="50" y="300" width="90" height="51.25" as="geometry" />
        </mxCell>
        <mxCell id="2KpdNYSs9xen9eOHEGVI-59" value="" style="rounded=0;whiteSpace=wrap;html=1;fillColor=#ffcccc;strokeColor=#36393d;sketch=1;curveFitting=1;jiggle=2;gradientColor=#E6D0DE;" vertex="1" parent="1">
          <mxGeometry x="60" y="310" width="90" height="51.25" as="geometry" />
        </mxCell>
      </root>
    </mxGraphModel>
  </diagram>
</mxfile>
